G04 #@! TF.GenerationSoftware,KiCad,Pcbnew,(5.1.2)-2*
G04 #@! TF.CreationDate,2021-03-05T17:09:52+01:00*
G04 #@! TF.ProjectId,kicad,6b696361-642e-46b6-9963-61645f706362,rev?*
G04 #@! TF.SameCoordinates,Original*
G04 #@! TF.FileFunction,Legend,Top*
G04 #@! TF.FilePolarity,Positive*
%FSLAX46Y46*%
G04 Gerber Fmt 4.6, Leading zero omitted, Abs format (unit mm)*
G04 Created by KiCad (PCBNEW (5.1.2)-2) date 2021-03-05 17:09:52*
%MOMM*%
%LPD*%
G04 APERTURE LIST*
%ADD10C,0.150000*%
%ADD11C,0.120000*%
G04 APERTURE END LIST*
D10*
X139390380Y-120999285D02*
X139390380Y-121570714D01*
X139390380Y-121285000D02*
X138390380Y-121285000D01*
X138533238Y-121380238D01*
X138628476Y-121475476D01*
X138676095Y-121570714D01*
D11*
X171089500Y-115355500D02*
X173037500Y-115355500D01*
X171089500Y-112355500D02*
X173037500Y-112355500D01*
X163639500Y-112355500D02*
X163639500Y-115355500D01*
X161269500Y-115355500D02*
X161269500Y-112355500D01*
X171089500Y-115355500D02*
X161269500Y-115355500D01*
X173037500Y-112355500D02*
X173037500Y-115355500D01*
X161269500Y-112355500D02*
X171089500Y-112355500D01*
X134678000Y-91678500D02*
X138118000Y-91678500D01*
X138118000Y-91678500D02*
X138118000Y-82438500D01*
X138118000Y-82438500D02*
X134678000Y-82438500D01*
X134678000Y-82438500D02*
X134678000Y-91678500D01*
X136398000Y-92368500D02*
X136398000Y-91678500D01*
X136398000Y-81748500D02*
X136398000Y-82438500D01*
X152551000Y-92032000D02*
X152551000Y-82212000D01*
X152551000Y-82212000D02*
X155551000Y-82212000D01*
X155551000Y-82212000D02*
X155551000Y-92032000D01*
X155551000Y-92032000D02*
X152551000Y-92032000D01*
X152551000Y-89662000D02*
X155551000Y-89662000D01*
X151785500Y-103085167D02*
X151785500Y-99578500D01*
X151425500Y-103085167D02*
X151785500Y-103085167D01*
X151425500Y-106591833D02*
X151425500Y-103085167D01*
X151785500Y-106591833D02*
X151425500Y-106591833D01*
X151785500Y-110098500D02*
X151785500Y-106591833D01*
X141965500Y-110098500D02*
X151785500Y-110098500D01*
X141965500Y-99578500D02*
X141965500Y-110098500D01*
X151785500Y-99578500D02*
X141965500Y-99578500D01*
D10*
X140208000Y-125095000D02*
X157988000Y-125095000D01*
X157988000Y-125095000D02*
X157988000Y-122555000D01*
X157988000Y-122555000D02*
X140208000Y-122555000D01*
X137388000Y-125375000D02*
X138938000Y-125375000D01*
X140208000Y-125095000D02*
X140208000Y-122555000D01*
X138938000Y-122275000D02*
X137388000Y-122275000D01*
X137388000Y-122275000D02*
X137388000Y-125375000D01*
X163068000Y-125095000D02*
X175768000Y-125095000D01*
X175768000Y-125095000D02*
X175768000Y-122555000D01*
X175768000Y-122555000D02*
X163068000Y-122555000D01*
X160248000Y-125375000D02*
X161798000Y-125375000D01*
X163068000Y-125095000D02*
X163068000Y-122555000D01*
X161798000Y-122275000D02*
X160248000Y-122275000D01*
X160248000Y-122275000D02*
X160248000Y-125375000D01*
X131064000Y-76835000D02*
X153924000Y-76835000D01*
X153924000Y-76835000D02*
X153924000Y-74295000D01*
X153924000Y-74295000D02*
X131064000Y-74295000D01*
X128244000Y-77115000D02*
X129794000Y-77115000D01*
X131064000Y-76835000D02*
X131064000Y-74295000D01*
X129794000Y-74015000D02*
X128244000Y-74015000D01*
X128244000Y-74015000D02*
X128244000Y-77115000D01*
X157988000Y-76835000D02*
X175768000Y-76835000D01*
X175768000Y-76835000D02*
X175768000Y-74295000D01*
X175768000Y-74295000D02*
X157988000Y-74295000D01*
X155168000Y-77115000D02*
X156718000Y-77115000D01*
X157988000Y-76835000D02*
X157988000Y-74295000D01*
X156718000Y-74015000D02*
X155168000Y-74015000D01*
X155168000Y-74015000D02*
X155168000Y-77115000D01*
X127254000Y-123825000D02*
G75*
G03X127254000Y-123825000I-2286000J0D01*
G01*
X179324000Y-118745000D02*
G75*
G03X179324000Y-118745000I-2286000J0D01*
G01*
X128524000Y-75565000D02*
G75*
G03X128524000Y-75565000I-2286000J0D01*
G01*
X179324000Y-90805000D02*
G75*
G03X179324000Y-90805000I-2286000J0D01*
G01*
D11*
X140113500Y-82881500D02*
X140113500Y-81623500D01*
X141953500Y-82881500D02*
X141953500Y-81623500D01*
X166003000Y-103980500D02*
X164745000Y-103980500D01*
X166003000Y-102140500D02*
X164745000Y-102140500D01*
X146652500Y-90628500D02*
X146652500Y-89370500D01*
X144812500Y-90628500D02*
X144812500Y-89370500D01*
X149161000Y-117430500D02*
X149161000Y-114090500D01*
X149161000Y-114090500D02*
X143821000Y-114090500D01*
X143821000Y-114090500D02*
X143821000Y-117430500D01*
X143821000Y-117430500D02*
X149161000Y-117430500D01*
X149201000Y-115760500D02*
X149161000Y-115760500D01*
X143781000Y-115760500D02*
X143821000Y-115760500D01*
X125603000Y-81875500D02*
X125603000Y-82565500D01*
X125603000Y-92495500D02*
X125603000Y-91805500D01*
X123883000Y-82565500D02*
X123883000Y-91805500D01*
X127323000Y-82565500D02*
X123883000Y-82565500D01*
X127323000Y-91805500D02*
X127323000Y-82565500D01*
X123883000Y-91805500D02*
X127323000Y-91805500D01*
X125872500Y-104579000D02*
X125872500Y-108019000D01*
X125872500Y-108019000D02*
X135112500Y-108019000D01*
X135112500Y-108019000D02*
X135112500Y-104579000D01*
X135112500Y-104579000D02*
X125872500Y-104579000D01*
X125182500Y-106299000D02*
X125872500Y-106299000D01*
X135802500Y-106299000D02*
X135112500Y-106299000D01*
X125055500Y-111442500D02*
X125745500Y-111442500D01*
X135675500Y-111442500D02*
X134985500Y-111442500D01*
X125745500Y-113162500D02*
X134985500Y-113162500D01*
X125745500Y-109722500D02*
X125745500Y-113162500D01*
X134985500Y-109722500D02*
X125745500Y-109722500D01*
X134985500Y-113162500D02*
X134985500Y-109722500D01*
X129534500Y-91742000D02*
X132974500Y-91742000D01*
X132974500Y-91742000D02*
X132974500Y-82502000D01*
X132974500Y-82502000D02*
X129534500Y-82502000D01*
X129534500Y-82502000D02*
X129534500Y-91742000D01*
X131254500Y-92432000D02*
X131254500Y-91742000D01*
X131254500Y-81812000D02*
X131254500Y-82502000D01*
X156932500Y-97409000D02*
X157622500Y-97409000D01*
X167552500Y-97409000D02*
X166862500Y-97409000D01*
X157622500Y-99129000D02*
X166862500Y-99129000D01*
X157622500Y-95689000D02*
X157622500Y-99129000D01*
X166862500Y-95689000D02*
X157622500Y-95689000D01*
X166862500Y-99129000D02*
X166862500Y-95689000D01*
X163425000Y-81767500D02*
X163425000Y-94127500D01*
X163425000Y-94127500D02*
X160425000Y-94127500D01*
X160425000Y-94127500D02*
X160425000Y-81767500D01*
X160425000Y-81767500D02*
X163425000Y-81767500D01*
X163425000Y-84137500D02*
X160425000Y-84137500D01*
D10*
X164941404Y-115847880D02*
X164941404Y-116657404D01*
X164989023Y-116752642D01*
X165036642Y-116800261D01*
X165131880Y-116847880D01*
X165322357Y-116847880D01*
X165417595Y-116800261D01*
X165465214Y-116752642D01*
X165512833Y-116657404D01*
X165512833Y-115847880D01*
X165941404Y-115943119D02*
X165989023Y-115895500D01*
X166084261Y-115847880D01*
X166322357Y-115847880D01*
X166417595Y-115895500D01*
X166465214Y-115943119D01*
X166512833Y-116038357D01*
X166512833Y-116133595D01*
X166465214Y-116276452D01*
X165893785Y-116847880D01*
X166512833Y-116847880D01*
X167465214Y-116847880D02*
X166893785Y-116847880D01*
X167179500Y-116847880D02*
X167179500Y-115847880D01*
X167084261Y-115990738D01*
X166989023Y-116085976D01*
X166893785Y-116133595D01*
X170394261Y-111259785D02*
X170441880Y-111116928D01*
X170441880Y-110878833D01*
X170394261Y-110783595D01*
X170346642Y-110735976D01*
X170251404Y-110688357D01*
X170156166Y-110688357D01*
X170060928Y-110735976D01*
X170013309Y-110783595D01*
X169965690Y-110878833D01*
X169918071Y-111069309D01*
X169870452Y-111164547D01*
X169822833Y-111212166D01*
X169727595Y-111259785D01*
X169632357Y-111259785D01*
X169537119Y-111212166D01*
X169489500Y-111164547D01*
X169441880Y-111069309D01*
X169441880Y-110831214D01*
X169489500Y-110688357D01*
X170441880Y-110259785D02*
X169441880Y-110259785D01*
X169441880Y-110021690D01*
X169489500Y-109878833D01*
X169584738Y-109783595D01*
X169679976Y-109735976D01*
X169870452Y-109688357D01*
X170013309Y-109688357D01*
X170203785Y-109735976D01*
X170299023Y-109783595D01*
X170394261Y-109878833D01*
X170441880Y-110021690D01*
X170441880Y-110259785D01*
X170156166Y-109307404D02*
X170156166Y-108831214D01*
X170441880Y-109402642D02*
X169441880Y-109069309D01*
X170441880Y-108735976D01*
X167854261Y-111331214D02*
X167901880Y-111188357D01*
X167901880Y-110950261D01*
X167854261Y-110855023D01*
X167806642Y-110807404D01*
X167711404Y-110759785D01*
X167616166Y-110759785D01*
X167520928Y-110807404D01*
X167473309Y-110855023D01*
X167425690Y-110950261D01*
X167378071Y-111140738D01*
X167330452Y-111235976D01*
X167282833Y-111283595D01*
X167187595Y-111331214D01*
X167092357Y-111331214D01*
X166997119Y-111283595D01*
X166949500Y-111235976D01*
X166901880Y-111140738D01*
X166901880Y-110902642D01*
X166949500Y-110759785D01*
X167806642Y-109759785D02*
X167854261Y-109807404D01*
X167901880Y-109950261D01*
X167901880Y-110045500D01*
X167854261Y-110188357D01*
X167759023Y-110283595D01*
X167663785Y-110331214D01*
X167473309Y-110378833D01*
X167330452Y-110378833D01*
X167139976Y-110331214D01*
X167044738Y-110283595D01*
X166949500Y-110188357D01*
X166901880Y-110045500D01*
X166901880Y-109950261D01*
X166949500Y-109807404D01*
X166997119Y-109759785D01*
X167901880Y-109331214D02*
X166901880Y-109331214D01*
X167901880Y-108759785D02*
X167330452Y-109188357D01*
X166901880Y-108759785D02*
X167473309Y-109331214D01*
X164361880Y-111378833D02*
X165361880Y-111045500D01*
X164361880Y-110712166D01*
X165266642Y-109807404D02*
X165314261Y-109855023D01*
X165361880Y-109997880D01*
X165361880Y-110093119D01*
X165314261Y-110235976D01*
X165219023Y-110331214D01*
X165123785Y-110378833D01*
X164933309Y-110426452D01*
X164790452Y-110426452D01*
X164599976Y-110378833D01*
X164504738Y-110331214D01*
X164409500Y-110235976D01*
X164361880Y-110093119D01*
X164361880Y-109997880D01*
X164409500Y-109855023D01*
X164457119Y-109807404D01*
X165266642Y-108807404D02*
X165314261Y-108855023D01*
X165361880Y-108997880D01*
X165361880Y-109093119D01*
X165314261Y-109235976D01*
X165219023Y-109331214D01*
X165123785Y-109378833D01*
X164933309Y-109426452D01*
X164790452Y-109426452D01*
X164599976Y-109378833D01*
X164504738Y-109331214D01*
X164409500Y-109235976D01*
X164361880Y-109093119D01*
X164361880Y-108997880D01*
X164409500Y-108855023D01*
X164457119Y-108807404D01*
X161869500Y-110807404D02*
X161821880Y-110902642D01*
X161821880Y-111045500D01*
X161869500Y-111188357D01*
X161964738Y-111283595D01*
X162059976Y-111331214D01*
X162250452Y-111378833D01*
X162393309Y-111378833D01*
X162583785Y-111331214D01*
X162679023Y-111283595D01*
X162774261Y-111188357D01*
X162821880Y-111045500D01*
X162821880Y-110950261D01*
X162774261Y-110807404D01*
X162726642Y-110759785D01*
X162393309Y-110759785D01*
X162393309Y-110950261D01*
X162821880Y-110331214D02*
X161821880Y-110331214D01*
X162821880Y-109759785D01*
X161821880Y-109759785D01*
X162821880Y-109283595D02*
X161821880Y-109283595D01*
X161821880Y-109045500D01*
X161869500Y-108902642D01*
X161964738Y-108807404D01*
X162059976Y-108759785D01*
X162250452Y-108712166D01*
X162393309Y-108712166D01*
X162583785Y-108759785D01*
X162679023Y-108807404D01*
X162774261Y-108902642D01*
X162821880Y-109045500D01*
X162821880Y-109283595D01*
X134130380Y-87225166D02*
X133654190Y-87558500D01*
X134130380Y-87796595D02*
X133130380Y-87796595D01*
X133130380Y-87415642D01*
X133178000Y-87320404D01*
X133225619Y-87272785D01*
X133320857Y-87225166D01*
X133463714Y-87225166D01*
X133558952Y-87272785D01*
X133606571Y-87320404D01*
X133654190Y-87415642D01*
X133654190Y-87796595D01*
X134130380Y-86272785D02*
X134130380Y-86844214D01*
X134130380Y-86558500D02*
X133130380Y-86558500D01*
X133273238Y-86653738D01*
X133368476Y-86748976D01*
X133416095Y-86844214D01*
X156003380Y-88360095D02*
X156812904Y-88360095D01*
X156908142Y-88312476D01*
X156955761Y-88264857D01*
X157003380Y-88169619D01*
X157003380Y-87979142D01*
X156955761Y-87883904D01*
X156908142Y-87836285D01*
X156812904Y-87788666D01*
X156003380Y-87788666D01*
X156003380Y-87407714D02*
X156003380Y-86788666D01*
X156384333Y-87122000D01*
X156384333Y-86979142D01*
X156431952Y-86883904D01*
X156479571Y-86836285D01*
X156574809Y-86788666D01*
X156812904Y-86788666D01*
X156908142Y-86836285D01*
X156955761Y-86883904D01*
X157003380Y-86979142D01*
X157003380Y-87264857D01*
X156955761Y-87360095D01*
X156908142Y-87407714D01*
X157003380Y-85836285D02*
X157003380Y-86407714D01*
X157003380Y-86122000D02*
X156003380Y-86122000D01*
X156146238Y-86217238D01*
X156241476Y-86312476D01*
X156289095Y-86407714D01*
X148907666Y-90384380D02*
X149241000Y-91384380D01*
X149574333Y-90384380D01*
X150479095Y-91289142D02*
X150431476Y-91336761D01*
X150288619Y-91384380D01*
X150193380Y-91384380D01*
X150050523Y-91336761D01*
X149955285Y-91241523D01*
X149907666Y-91146285D01*
X149860047Y-90955809D01*
X149860047Y-90812952D01*
X149907666Y-90622476D01*
X149955285Y-90527238D01*
X150050523Y-90432000D01*
X150193380Y-90384380D01*
X150288619Y-90384380D01*
X150431476Y-90432000D01*
X150479095Y-90479619D01*
X151479095Y-91289142D02*
X151431476Y-91336761D01*
X151288619Y-91384380D01*
X151193380Y-91384380D01*
X151050523Y-91336761D01*
X150955285Y-91241523D01*
X150907666Y-91146285D01*
X150860047Y-90955809D01*
X150860047Y-90812952D01*
X150907666Y-90622476D01*
X150955285Y-90527238D01*
X151050523Y-90432000D01*
X151193380Y-90384380D01*
X151288619Y-90384380D01*
X151431476Y-90432000D01*
X151479095Y-90479619D01*
X149479095Y-87892000D02*
X149383857Y-87844380D01*
X149241000Y-87844380D01*
X149098142Y-87892000D01*
X149002904Y-87987238D01*
X148955285Y-88082476D01*
X148907666Y-88272952D01*
X148907666Y-88415809D01*
X148955285Y-88606285D01*
X149002904Y-88701523D01*
X149098142Y-88796761D01*
X149241000Y-88844380D01*
X149336238Y-88844380D01*
X149479095Y-88796761D01*
X149526714Y-88749142D01*
X149526714Y-88415809D01*
X149336238Y-88415809D01*
X149955285Y-88844380D02*
X149955285Y-87844380D01*
X150526714Y-88844380D01*
X150526714Y-87844380D01*
X151002904Y-88844380D02*
X151002904Y-87844380D01*
X151241000Y-87844380D01*
X151383857Y-87892000D01*
X151479095Y-87987238D01*
X151526714Y-88082476D01*
X151574333Y-88272952D01*
X151574333Y-88415809D01*
X151526714Y-88606285D01*
X151479095Y-88701523D01*
X151383857Y-88796761D01*
X151241000Y-88844380D01*
X151002904Y-88844380D01*
X145732904Y-85304380D02*
X146304333Y-85304380D01*
X146018619Y-86304380D02*
X146018619Y-85304380D01*
X146542428Y-85304380D02*
X147209095Y-86304380D01*
X147209095Y-85304380D02*
X146542428Y-86304380D01*
X147351952Y-86399619D02*
X148113857Y-86399619D01*
X148209095Y-85637714D02*
X148590047Y-85637714D01*
X148351952Y-85304380D02*
X148351952Y-86161523D01*
X148399571Y-86256761D01*
X148494809Y-86304380D01*
X148590047Y-86304380D01*
X149066238Y-86304380D02*
X148971000Y-86256761D01*
X148923380Y-86209142D01*
X148875761Y-86113904D01*
X148875761Y-85828190D01*
X148923380Y-85732952D01*
X148971000Y-85685333D01*
X149066238Y-85637714D01*
X149209095Y-85637714D01*
X149304333Y-85685333D01*
X149351952Y-85732952D01*
X149399571Y-85828190D01*
X149399571Y-86113904D01*
X149351952Y-86209142D01*
X149304333Y-86256761D01*
X149209095Y-86304380D01*
X149066238Y-86304380D01*
X149590047Y-86399619D02*
X150351952Y-86399619D01*
X151161476Y-86304380D02*
X150828142Y-85828190D01*
X150590047Y-86304380D02*
X150590047Y-85304380D01*
X150971000Y-85304380D01*
X151066238Y-85352000D01*
X151113857Y-85399619D01*
X151161476Y-85494857D01*
X151161476Y-85637714D01*
X151113857Y-85732952D01*
X151066238Y-85780571D01*
X150971000Y-85828190D01*
X150590047Y-85828190D01*
X151494809Y-85304380D02*
X152161476Y-86304380D01*
X152161476Y-85304380D02*
X151494809Y-86304380D01*
X146447190Y-83764380D02*
X146113857Y-83288190D01*
X145875761Y-83764380D02*
X145875761Y-82764380D01*
X146256714Y-82764380D01*
X146351952Y-82812000D01*
X146399571Y-82859619D01*
X146447190Y-82954857D01*
X146447190Y-83097714D01*
X146399571Y-83192952D01*
X146351952Y-83240571D01*
X146256714Y-83288190D01*
X145875761Y-83288190D01*
X146780523Y-82764380D02*
X147447190Y-83764380D01*
X147447190Y-82764380D02*
X146780523Y-83764380D01*
X147590047Y-83859619D02*
X148351952Y-83859619D01*
X148447190Y-83097714D02*
X148828142Y-83097714D01*
X148590047Y-82764380D02*
X148590047Y-83621523D01*
X148637666Y-83716761D01*
X148732904Y-83764380D01*
X148828142Y-83764380D01*
X149304333Y-83764380D02*
X149209095Y-83716761D01*
X149161476Y-83669142D01*
X149113857Y-83573904D01*
X149113857Y-83288190D01*
X149161476Y-83192952D01*
X149209095Y-83145333D01*
X149304333Y-83097714D01*
X149447190Y-83097714D01*
X149542428Y-83145333D01*
X149590047Y-83192952D01*
X149637666Y-83288190D01*
X149637666Y-83573904D01*
X149590047Y-83669142D01*
X149542428Y-83716761D01*
X149447190Y-83764380D01*
X149304333Y-83764380D01*
X149828142Y-83859619D02*
X150590047Y-83859619D01*
X150685285Y-82764380D02*
X151256714Y-82764380D01*
X150971000Y-83764380D02*
X150971000Y-82764380D01*
X151494809Y-82764380D02*
X152161476Y-83764380D01*
X152161476Y-82764380D02*
X151494809Y-83764380D01*
X152237880Y-105600404D02*
X153047404Y-105600404D01*
X153142642Y-105552785D01*
X153190261Y-105505166D01*
X153237880Y-105409928D01*
X153237880Y-105219452D01*
X153190261Y-105124214D01*
X153142642Y-105076595D01*
X153047404Y-105028976D01*
X152237880Y-105028976D01*
X153237880Y-104028976D02*
X153237880Y-104600404D01*
X153237880Y-104314690D02*
X152237880Y-104314690D01*
X152380738Y-104409928D01*
X152475976Y-104505166D01*
X152523595Y-104600404D01*
X151137880Y-113244214D02*
X150137880Y-113244214D01*
X151137880Y-112672785D01*
X150137880Y-112672785D01*
X151042642Y-111625166D02*
X151090261Y-111672785D01*
X151137880Y-111815642D01*
X151137880Y-111910880D01*
X151090261Y-112053738D01*
X150995023Y-112148976D01*
X150899785Y-112196595D01*
X150709309Y-112244214D01*
X150566452Y-112244214D01*
X150375976Y-112196595D01*
X150280738Y-112148976D01*
X150185500Y-112053738D01*
X150137880Y-111910880D01*
X150137880Y-111815642D01*
X150185500Y-111672785D01*
X150233119Y-111625166D01*
X147597880Y-113410880D02*
X148597880Y-113077547D01*
X147597880Y-112744214D01*
X148216928Y-112410880D02*
X148216928Y-111648976D01*
X148597880Y-112029928D02*
X147835976Y-112029928D01*
X145057880Y-113458500D02*
X145057880Y-113268023D01*
X145105500Y-113172785D01*
X145200738Y-113077547D01*
X145391214Y-113029928D01*
X145724547Y-113029928D01*
X145915023Y-113077547D01*
X146010261Y-113172785D01*
X146057880Y-113268023D01*
X146057880Y-113458500D01*
X146010261Y-113553738D01*
X145915023Y-113648976D01*
X145724547Y-113696595D01*
X145391214Y-113696595D01*
X145200738Y-113648976D01*
X145105500Y-113553738D01*
X145057880Y-113458500D01*
X145057880Y-112601357D02*
X145867404Y-112601357D01*
X145962642Y-112553738D01*
X146010261Y-112506119D01*
X146057880Y-112410880D01*
X146057880Y-112220404D01*
X146010261Y-112125166D01*
X145962642Y-112077547D01*
X145867404Y-112029928D01*
X145057880Y-112029928D01*
X145057880Y-111696595D02*
X145057880Y-111125166D01*
X146057880Y-111410880D02*
X145057880Y-111410880D01*
X142994071Y-123205166D02*
X142994071Y-122871833D01*
X143517880Y-122728976D02*
X143517880Y-123205166D01*
X142517880Y-123205166D01*
X142517880Y-122728976D01*
X142517880Y-122395642D02*
X143517880Y-121728976D01*
X142517880Y-121728976D02*
X143517880Y-122395642D01*
X142517880Y-121490880D02*
X142517880Y-120919452D01*
X143517880Y-121205166D02*
X142517880Y-121205166D01*
X143422642Y-120014690D02*
X143470261Y-120062309D01*
X143517880Y-120205166D01*
X143517880Y-120300404D01*
X143470261Y-120443261D01*
X143375023Y-120538500D01*
X143279785Y-120586119D01*
X143089309Y-120633738D01*
X142946452Y-120633738D01*
X142755976Y-120586119D01*
X142660738Y-120538500D01*
X142565500Y-120443261D01*
X142517880Y-120300404D01*
X142517880Y-120205166D01*
X142565500Y-120062309D01*
X142613119Y-120014690D01*
X143517880Y-119109928D02*
X143517880Y-119586119D01*
X142517880Y-119586119D01*
X142517880Y-118586119D02*
X142517880Y-118395642D01*
X142565500Y-118300404D01*
X142660738Y-118205166D01*
X142851214Y-118157547D01*
X143184547Y-118157547D01*
X143375023Y-118205166D01*
X143470261Y-118300404D01*
X143517880Y-118395642D01*
X143517880Y-118586119D01*
X143470261Y-118681357D01*
X143375023Y-118776595D01*
X143184547Y-118824214D01*
X142851214Y-118824214D01*
X142660738Y-118776595D01*
X142565500Y-118681357D01*
X142517880Y-118586119D01*
X143422642Y-117157547D02*
X143470261Y-117205166D01*
X143517880Y-117348023D01*
X143517880Y-117443261D01*
X143470261Y-117586119D01*
X143375023Y-117681357D01*
X143279785Y-117728976D01*
X143089309Y-117776595D01*
X142946452Y-117776595D01*
X142755976Y-117728976D01*
X142660738Y-117681357D01*
X142565500Y-117586119D01*
X142517880Y-117443261D01*
X142517880Y-117348023D01*
X142565500Y-117205166D01*
X142613119Y-117157547D01*
X143517880Y-116728976D02*
X142517880Y-116728976D01*
X143517880Y-116157547D02*
X142946452Y-116586119D01*
X142517880Y-116157547D02*
X143089309Y-116728976D01*
X143517880Y-115728976D02*
X142517880Y-115728976D01*
X143517880Y-115252785D02*
X142517880Y-115252785D01*
X143517880Y-114681357D01*
X142517880Y-114681357D01*
X143517880Y-114205166D02*
X142517880Y-114205166D01*
X142517880Y-113824214D01*
X142565500Y-113728976D01*
X142613119Y-113681357D01*
X142708357Y-113633738D01*
X142851214Y-113633738D01*
X142946452Y-113681357D01*
X142994071Y-113728976D01*
X143041690Y-113824214D01*
X143041690Y-114205166D01*
X142517880Y-113205166D02*
X143327404Y-113205166D01*
X143422642Y-113157547D01*
X143470261Y-113109928D01*
X143517880Y-113014690D01*
X143517880Y-112824214D01*
X143470261Y-112728976D01*
X143422642Y-112681357D01*
X143327404Y-112633738D01*
X142517880Y-112633738D01*
X142517880Y-112300404D02*
X142517880Y-111728976D01*
X143517880Y-112014690D02*
X142517880Y-112014690D01*
X142517880Y-98170880D02*
X143517880Y-97837547D01*
X142517880Y-97504214D01*
X143136928Y-97170880D02*
X143136928Y-96408976D01*
X145676928Y-98361357D02*
X145676928Y-97599452D01*
X146057880Y-97980404D02*
X145295976Y-97980404D01*
X146057880Y-97123261D02*
X145057880Y-97123261D01*
X146057880Y-96647071D02*
X145057880Y-96647071D01*
X146057880Y-96075642D01*
X145057880Y-96075642D01*
X148216928Y-98361357D02*
X148216928Y-97599452D01*
X148597880Y-97123261D02*
X147597880Y-97123261D01*
X148597880Y-96647071D02*
X147597880Y-96647071D01*
X148597880Y-96075642D01*
X147597880Y-96075642D01*
X151137880Y-98861357D02*
X150137880Y-98861357D01*
X151137880Y-98289928D01*
X150137880Y-98289928D01*
X151042642Y-97242309D02*
X151090261Y-97289928D01*
X151137880Y-97432785D01*
X151137880Y-97528023D01*
X151090261Y-97670880D01*
X150995023Y-97766119D01*
X150899785Y-97813738D01*
X150709309Y-97861357D01*
X150566452Y-97861357D01*
X150375976Y-97813738D01*
X150280738Y-97766119D01*
X150185500Y-97670880D01*
X150137880Y-97528023D01*
X150137880Y-97432785D01*
X150185500Y-97289928D01*
X150233119Y-97242309D01*
X151233119Y-97051833D02*
X151233119Y-96289928D01*
X150233119Y-96099452D02*
X150185500Y-96051833D01*
X150137880Y-95956595D01*
X150137880Y-95718500D01*
X150185500Y-95623261D01*
X150233119Y-95575642D01*
X150328357Y-95528023D01*
X150423595Y-95528023D01*
X150566452Y-95575642D01*
X151137880Y-96147071D01*
X151137880Y-95528023D01*
X147089904Y-121737380D02*
X147089904Y-120737380D01*
X147470857Y-120737380D01*
X147566095Y-120785000D01*
X147613714Y-120832619D01*
X147661333Y-120927857D01*
X147661333Y-121070714D01*
X147613714Y-121165952D01*
X147566095Y-121213571D01*
X147470857Y-121261190D01*
X147089904Y-121261190D01*
X148613714Y-121737380D02*
X148042285Y-121737380D01*
X148328000Y-121737380D02*
X148328000Y-120737380D01*
X148232761Y-120880238D01*
X148137523Y-120975476D01*
X148042285Y-121023095D01*
X167663904Y-121737380D02*
X167663904Y-120737380D01*
X168044857Y-120737380D01*
X168140095Y-120785000D01*
X168187714Y-120832619D01*
X168235333Y-120927857D01*
X168235333Y-121070714D01*
X168187714Y-121165952D01*
X168140095Y-121213571D01*
X168044857Y-121261190D01*
X167663904Y-121261190D01*
X168616285Y-120832619D02*
X168663904Y-120785000D01*
X168759142Y-120737380D01*
X168997238Y-120737380D01*
X169092476Y-120785000D01*
X169140095Y-120832619D01*
X169187714Y-120927857D01*
X169187714Y-121023095D01*
X169140095Y-121165952D01*
X168568666Y-121737380D01*
X169187714Y-121737380D01*
X140485904Y-78811380D02*
X140485904Y-77811380D01*
X140866857Y-77811380D01*
X140962095Y-77859000D01*
X141009714Y-77906619D01*
X141057333Y-78001857D01*
X141057333Y-78144714D01*
X141009714Y-78239952D01*
X140962095Y-78287571D01*
X140866857Y-78335190D01*
X140485904Y-78335190D01*
X141390666Y-77811380D02*
X142009714Y-77811380D01*
X141676380Y-78192333D01*
X141819238Y-78192333D01*
X141914476Y-78239952D01*
X141962095Y-78287571D01*
X142009714Y-78382809D01*
X142009714Y-78620904D01*
X141962095Y-78716142D01*
X141914476Y-78763761D01*
X141819238Y-78811380D01*
X141533523Y-78811380D01*
X141438285Y-78763761D01*
X141390666Y-78716142D01*
X164869904Y-78811380D02*
X164869904Y-77811380D01*
X165250857Y-77811380D01*
X165346095Y-77859000D01*
X165393714Y-77906619D01*
X165441333Y-78001857D01*
X165441333Y-78144714D01*
X165393714Y-78239952D01*
X165346095Y-78287571D01*
X165250857Y-78335190D01*
X164869904Y-78335190D01*
X166298476Y-78144714D02*
X166298476Y-78811380D01*
X166060380Y-77763761D02*
X165822285Y-78478047D01*
X166441333Y-78478047D01*
X139340642Y-82419166D02*
X139388261Y-82466785D01*
X139435880Y-82609642D01*
X139435880Y-82704880D01*
X139388261Y-82847738D01*
X139293023Y-82942976D01*
X139197785Y-82990595D01*
X139007309Y-83038214D01*
X138864452Y-83038214D01*
X138673976Y-82990595D01*
X138578738Y-82942976D01*
X138483500Y-82847738D01*
X138435880Y-82704880D01*
X138435880Y-82609642D01*
X138483500Y-82466785D01*
X138531119Y-82419166D01*
X139435880Y-81466785D02*
X139435880Y-82038214D01*
X139435880Y-81752500D02*
X138435880Y-81752500D01*
X138578738Y-81847738D01*
X138673976Y-81942976D01*
X138721595Y-82038214D01*
X165207333Y-105467642D02*
X165159714Y-105515261D01*
X165016857Y-105562880D01*
X164921619Y-105562880D01*
X164778761Y-105515261D01*
X164683523Y-105420023D01*
X164635904Y-105324785D01*
X164588285Y-105134309D01*
X164588285Y-104991452D01*
X164635904Y-104800976D01*
X164683523Y-104705738D01*
X164778761Y-104610500D01*
X164921619Y-104562880D01*
X165016857Y-104562880D01*
X165159714Y-104610500D01*
X165207333Y-104658119D01*
X165588285Y-104658119D02*
X165635904Y-104610500D01*
X165731142Y-104562880D01*
X165969238Y-104562880D01*
X166064476Y-104610500D01*
X166112095Y-104658119D01*
X166159714Y-104753357D01*
X166159714Y-104848595D01*
X166112095Y-104991452D01*
X165540666Y-105562880D01*
X166159714Y-105562880D01*
X144039642Y-90166166D02*
X144087261Y-90213785D01*
X144134880Y-90356642D01*
X144134880Y-90451880D01*
X144087261Y-90594738D01*
X143992023Y-90689976D01*
X143896785Y-90737595D01*
X143706309Y-90785214D01*
X143563452Y-90785214D01*
X143372976Y-90737595D01*
X143277738Y-90689976D01*
X143182500Y-90594738D01*
X143134880Y-90451880D01*
X143134880Y-90356642D01*
X143182500Y-90213785D01*
X143230119Y-90166166D01*
X143134880Y-89832833D02*
X143134880Y-89213785D01*
X143515833Y-89547119D01*
X143515833Y-89404261D01*
X143563452Y-89309023D01*
X143611071Y-89261404D01*
X143706309Y-89213785D01*
X143944404Y-89213785D01*
X144039642Y-89261404D01*
X144087261Y-89309023D01*
X144134880Y-89404261D01*
X144134880Y-89689976D01*
X144087261Y-89785214D01*
X144039642Y-89832833D01*
X146324333Y-118787642D02*
X146276714Y-118835261D01*
X146133857Y-118882880D01*
X146038619Y-118882880D01*
X145895761Y-118835261D01*
X145800523Y-118740023D01*
X145752904Y-118644785D01*
X145705285Y-118454309D01*
X145705285Y-118311452D01*
X145752904Y-118120976D01*
X145800523Y-118025738D01*
X145895761Y-117930500D01*
X146038619Y-117882880D01*
X146133857Y-117882880D01*
X146276714Y-117930500D01*
X146324333Y-117978119D01*
X147181476Y-118216214D02*
X147181476Y-118882880D01*
X146943380Y-117835261D02*
X146705285Y-118549547D01*
X147324333Y-118549547D01*
X123335380Y-87352166D02*
X122859190Y-87685500D01*
X123335380Y-87923595D02*
X122335380Y-87923595D01*
X122335380Y-87542642D01*
X122383000Y-87447404D01*
X122430619Y-87399785D01*
X122525857Y-87352166D01*
X122668714Y-87352166D01*
X122763952Y-87399785D01*
X122811571Y-87447404D01*
X122859190Y-87542642D01*
X122859190Y-87923595D01*
X122335380Y-86733119D02*
X122335380Y-86637880D01*
X122383000Y-86542642D01*
X122430619Y-86495023D01*
X122525857Y-86447404D01*
X122716333Y-86399785D01*
X122954428Y-86399785D01*
X123144904Y-86447404D01*
X123240142Y-86495023D01*
X123287761Y-86542642D01*
X123335380Y-86637880D01*
X123335380Y-86733119D01*
X123287761Y-86828357D01*
X123240142Y-86875976D01*
X123144904Y-86923595D01*
X122954428Y-86971214D01*
X122716333Y-86971214D01*
X122525857Y-86923595D01*
X122430619Y-86875976D01*
X122383000Y-86828357D01*
X122335380Y-86733119D01*
X130325833Y-104031380D02*
X129992500Y-103555190D01*
X129754404Y-104031380D02*
X129754404Y-103031380D01*
X130135357Y-103031380D01*
X130230595Y-103079000D01*
X130278214Y-103126619D01*
X130325833Y-103221857D01*
X130325833Y-103364714D01*
X130278214Y-103459952D01*
X130230595Y-103507571D01*
X130135357Y-103555190D01*
X129754404Y-103555190D01*
X130706785Y-103126619D02*
X130754404Y-103079000D01*
X130849642Y-103031380D01*
X131087738Y-103031380D01*
X131182976Y-103079000D01*
X131230595Y-103126619D01*
X131278214Y-103221857D01*
X131278214Y-103317095D01*
X131230595Y-103459952D01*
X130659166Y-104031380D01*
X131278214Y-104031380D01*
X130198833Y-114614880D02*
X129865500Y-114138690D01*
X129627404Y-114614880D02*
X129627404Y-113614880D01*
X130008357Y-113614880D01*
X130103595Y-113662500D01*
X130151214Y-113710119D01*
X130198833Y-113805357D01*
X130198833Y-113948214D01*
X130151214Y-114043452D01*
X130103595Y-114091071D01*
X130008357Y-114138690D01*
X129627404Y-114138690D01*
X130532166Y-113614880D02*
X131151214Y-113614880D01*
X130817880Y-113995833D01*
X130960738Y-113995833D01*
X131055976Y-114043452D01*
X131103595Y-114091071D01*
X131151214Y-114186309D01*
X131151214Y-114424404D01*
X131103595Y-114519642D01*
X131055976Y-114567261D01*
X130960738Y-114614880D01*
X130675023Y-114614880D01*
X130579785Y-114567261D01*
X130532166Y-114519642D01*
X128986880Y-87288666D02*
X128510690Y-87622000D01*
X128986880Y-87860095D02*
X127986880Y-87860095D01*
X127986880Y-87479142D01*
X128034500Y-87383904D01*
X128082119Y-87336285D01*
X128177357Y-87288666D01*
X128320214Y-87288666D01*
X128415452Y-87336285D01*
X128463071Y-87383904D01*
X128510690Y-87479142D01*
X128510690Y-87860095D01*
X127986880Y-86383904D02*
X127986880Y-86860095D01*
X128463071Y-86907714D01*
X128415452Y-86860095D01*
X128367833Y-86764857D01*
X128367833Y-86526761D01*
X128415452Y-86431523D01*
X128463071Y-86383904D01*
X128558309Y-86336285D01*
X128796404Y-86336285D01*
X128891642Y-86383904D01*
X128939261Y-86431523D01*
X128986880Y-86526761D01*
X128986880Y-86764857D01*
X128939261Y-86860095D01*
X128891642Y-86907714D01*
X162075833Y-100581380D02*
X161742500Y-100105190D01*
X161504404Y-100581380D02*
X161504404Y-99581380D01*
X161885357Y-99581380D01*
X161980595Y-99629000D01*
X162028214Y-99676619D01*
X162075833Y-99771857D01*
X162075833Y-99914714D01*
X162028214Y-100009952D01*
X161980595Y-100057571D01*
X161885357Y-100105190D01*
X161504404Y-100105190D01*
X162932976Y-99581380D02*
X162742500Y-99581380D01*
X162647261Y-99629000D01*
X162599642Y-99676619D01*
X162504404Y-99819476D01*
X162456785Y-100009952D01*
X162456785Y-100390904D01*
X162504404Y-100486142D01*
X162552023Y-100533761D01*
X162647261Y-100581380D01*
X162837738Y-100581380D01*
X162932976Y-100533761D01*
X162980595Y-100486142D01*
X163028214Y-100390904D01*
X163028214Y-100152809D01*
X162980595Y-100057571D01*
X162932976Y-100009952D01*
X162837738Y-99962333D01*
X162647261Y-99962333D01*
X162552023Y-100009952D01*
X162504404Y-100057571D01*
X162456785Y-100152809D01*
X158877380Y-89185595D02*
X159686904Y-89185595D01*
X159782142Y-89137976D01*
X159829761Y-89090357D01*
X159877380Y-88995119D01*
X159877380Y-88804642D01*
X159829761Y-88709404D01*
X159782142Y-88661785D01*
X159686904Y-88614166D01*
X158877380Y-88614166D01*
X159210714Y-87709404D02*
X159877380Y-87709404D01*
X158829761Y-87947500D02*
X159544047Y-88185595D01*
X159544047Y-87566547D01*
X159877380Y-86661785D02*
X159877380Y-87233214D01*
X159877380Y-86947500D02*
X158877380Y-86947500D01*
X159020238Y-87042738D01*
X159115476Y-87137976D01*
X159163095Y-87233214D01*
X165139761Y-83224642D02*
X165092142Y-83272261D01*
X164949285Y-83319880D01*
X164854047Y-83319880D01*
X164711190Y-83272261D01*
X164615952Y-83177023D01*
X164568333Y-83081785D01*
X164520714Y-82891309D01*
X164520714Y-82748452D01*
X164568333Y-82557976D01*
X164615952Y-82462738D01*
X164711190Y-82367500D01*
X164854047Y-82319880D01*
X164949285Y-82319880D01*
X165092142Y-82367500D01*
X165139761Y-82415119D01*
X166044523Y-83319880D02*
X165568333Y-83319880D01*
X165568333Y-82319880D01*
X166377857Y-83319880D02*
X166377857Y-82319880D01*
X166949285Y-83319880D02*
X166520714Y-82748452D01*
X166949285Y-82319880D02*
X166377857Y-82891309D01*
X164235000Y-85859880D02*
X164235000Y-84859880D01*
X164473095Y-84859880D01*
X164615952Y-84907500D01*
X164711190Y-85002738D01*
X164758809Y-85097976D01*
X164806428Y-85288452D01*
X164806428Y-85431309D01*
X164758809Y-85621785D01*
X164711190Y-85717023D01*
X164615952Y-85812261D01*
X164473095Y-85859880D01*
X164235000Y-85859880D01*
X165187380Y-85574166D02*
X165663571Y-85574166D01*
X165092142Y-85859880D02*
X165425476Y-84859880D01*
X165758809Y-85859880D01*
X165949285Y-84859880D02*
X166520714Y-84859880D01*
X166235000Y-85859880D02*
X166235000Y-84859880D01*
X166806428Y-85574166D02*
X167282619Y-85574166D01*
X166711190Y-85859880D02*
X167044523Y-84859880D01*
X167377857Y-85859880D01*
X164505000Y-88352261D02*
X164647857Y-88399880D01*
X164885952Y-88399880D01*
X164981190Y-88352261D01*
X165028809Y-88304642D01*
X165076428Y-88209404D01*
X165076428Y-88114166D01*
X165028809Y-88018928D01*
X164981190Y-87971309D01*
X164885952Y-87923690D01*
X164695476Y-87876071D01*
X164600238Y-87828452D01*
X164552619Y-87780833D01*
X164505000Y-87685595D01*
X164505000Y-87590357D01*
X164552619Y-87495119D01*
X164600238Y-87447500D01*
X164695476Y-87399880D01*
X164933571Y-87399880D01*
X165076428Y-87447500D01*
X165409761Y-87399880D02*
X165647857Y-88399880D01*
X165838333Y-87685595D01*
X166028809Y-88399880D01*
X166266904Y-87399880D01*
X166647857Y-88399880D02*
X166647857Y-87399880D01*
X166981190Y-87399880D02*
X167552619Y-87399880D01*
X167266904Y-88399880D02*
X167266904Y-87399880D01*
X168457380Y-88304642D02*
X168409761Y-88352261D01*
X168266904Y-88399880D01*
X168171666Y-88399880D01*
X168028809Y-88352261D01*
X167933571Y-88257023D01*
X167885952Y-88161785D01*
X167838333Y-87971309D01*
X167838333Y-87828452D01*
X167885952Y-87637976D01*
X167933571Y-87542738D01*
X168028809Y-87447500D01*
X168171666Y-87399880D01*
X168266904Y-87399880D01*
X168409761Y-87447500D01*
X168457380Y-87495119D01*
X168885952Y-88399880D02*
X168885952Y-87399880D01*
X168885952Y-87876071D02*
X169457380Y-87876071D01*
X169457380Y-88399880D02*
X169457380Y-87399880D01*
X164401666Y-89939880D02*
X164735000Y-90939880D01*
X165068333Y-89939880D01*
X165973095Y-90844642D02*
X165925476Y-90892261D01*
X165782619Y-90939880D01*
X165687380Y-90939880D01*
X165544523Y-90892261D01*
X165449285Y-90797023D01*
X165401666Y-90701785D01*
X165354047Y-90511309D01*
X165354047Y-90368452D01*
X165401666Y-90177976D01*
X165449285Y-90082738D01*
X165544523Y-89987500D01*
X165687380Y-89939880D01*
X165782619Y-89939880D01*
X165925476Y-89987500D01*
X165973095Y-90035119D01*
X166973095Y-90844642D02*
X166925476Y-90892261D01*
X166782619Y-90939880D01*
X166687380Y-90939880D01*
X166544523Y-90892261D01*
X166449285Y-90797023D01*
X166401666Y-90701785D01*
X166354047Y-90511309D01*
X166354047Y-90368452D01*
X166401666Y-90177976D01*
X166449285Y-90082738D01*
X166544523Y-89987500D01*
X166687380Y-89939880D01*
X166782619Y-89939880D01*
X166925476Y-89987500D01*
X166973095Y-90035119D01*
X164973095Y-92527500D02*
X164877857Y-92479880D01*
X164735000Y-92479880D01*
X164592142Y-92527500D01*
X164496904Y-92622738D01*
X164449285Y-92717976D01*
X164401666Y-92908452D01*
X164401666Y-93051309D01*
X164449285Y-93241785D01*
X164496904Y-93337023D01*
X164592142Y-93432261D01*
X164735000Y-93479880D01*
X164830238Y-93479880D01*
X164973095Y-93432261D01*
X165020714Y-93384642D01*
X165020714Y-93051309D01*
X164830238Y-93051309D01*
X165449285Y-93479880D02*
X165449285Y-92479880D01*
X166020714Y-93479880D01*
X166020714Y-92479880D01*
X166496904Y-93479880D02*
X166496904Y-92479880D01*
X166735000Y-92479880D01*
X166877857Y-92527500D01*
X166973095Y-92622738D01*
X167020714Y-92717976D01*
X167068333Y-92908452D01*
X167068333Y-93051309D01*
X167020714Y-93241785D01*
X166973095Y-93337023D01*
X166877857Y-93432261D01*
X166735000Y-93479880D01*
X166496904Y-93479880D01*
M02*
